<mxfile host="app.diagrams.net" modified="2024-03-06T16:31:00.492Z" agent="Mozilla/5.0 (Windows NT 10.0; Win64; x64) AppleWebKit/537.36 (KHTML, like Gecko) Chrome/122.0.0.0 Safari/537.36 Edg/122.0.0.0" etag="KxvPK33qyyGjqCobm1tj" version="24.0.1" type="github">
  <diagram name="第 1 页" id="BjC_Cdz9ua56Mgc4hzCF">
    <mxGraphModel dx="809" dy="532" grid="1" gridSize="10" guides="1" tooltips="1" connect="1" arrows="1" fold="1" page="1" pageScale="1" pageWidth="827" pageHeight="1169" math="0" shadow="0">
      <root>
        <mxCell id="0" />
        <mxCell id="1" parent="0" />
        <mxCell id="wyyFAX1h3lHePP9cVkru-2" value="" style="rounded=1;whiteSpace=wrap;html=1;" vertex="1" parent="1">
          <mxGeometry x="80" y="430" width="280" height="130" as="geometry" />
        </mxCell>
        <mxCell id="wyyFAX1h3lHePP9cVkru-3" value="" style="rounded=1;whiteSpace=wrap;html=1;" vertex="1" parent="1">
          <mxGeometry x="370" y="430" width="280" height="130" as="geometry" />
        </mxCell>
        <mxCell id="wyyFAX1h3lHePP9cVkru-5" value="" style="ellipse;shape=cloud;whiteSpace=wrap;html=1;" vertex="1" parent="1">
          <mxGeometry x="370" y="595" width="70" height="70" as="geometry" />
        </mxCell>
        <mxCell id="wyyFAX1h3lHePP9cVkru-8" value="" style="rounded=0;whiteSpace=wrap;html=1;" vertex="1" parent="1">
          <mxGeometry x="85" y="460" width="270" height="40" as="geometry" />
        </mxCell>
        <mxCell id="wyyFAX1h3lHePP9cVkru-10" value="" style="rounded=0;whiteSpace=wrap;html=1;" vertex="1" parent="1">
          <mxGeometry x="85" y="510" width="270" height="40" as="geometry" />
        </mxCell>
        <mxCell id="wyyFAX1h3lHePP9cVkru-11" value="Local Storage I/O" style="text;html=1;align=center;verticalAlign=middle;whiteSpace=wrap;rounded=0;" vertex="1" parent="1">
          <mxGeometry x="160" y="430" width="120" height="30" as="geometry" />
        </mxCell>
        <mxCell id="wyyFAX1h3lHePP9cVkru-12" value="" style="rounded=0;whiteSpace=wrap;html=1;" vertex="1" parent="1">
          <mxGeometry x="375" y="460" width="270" height="40" as="geometry" />
        </mxCell>
        <mxCell id="wyyFAX1h3lHePP9cVkru-13" value="" style="rounded=0;whiteSpace=wrap;html=1;" vertex="1" parent="1">
          <mxGeometry x="375" y="510" width="270" height="40" as="geometry" />
        </mxCell>
        <mxCell id="wyyFAX1h3lHePP9cVkru-14" value="Cloud Storage I/O" style="text;html=1;align=center;verticalAlign=middle;whiteSpace=wrap;rounded=0;" vertex="1" parent="1">
          <mxGeometry x="450" y="430" width="120" height="30" as="geometry" />
        </mxCell>
        <mxCell id="wyyFAX1h3lHePP9cVkru-15" value="" style="whiteSpace=wrap;html=1;aspect=fixed;fillColor=#007FFF;" vertex="1" parent="1">
          <mxGeometry x="375" y="510" width="40" height="40" as="geometry" />
        </mxCell>
        <mxCell id="wyyFAX1h3lHePP9cVkru-16" value="" style="whiteSpace=wrap;html=1;aspect=fixed;fillColor=#007FFF;" vertex="1" parent="1">
          <mxGeometry x="415" y="510" width="40" height="40" as="geometry" />
        </mxCell>
        <mxCell id="wyyFAX1h3lHePP9cVkru-17" value="" style="whiteSpace=wrap;html=1;aspect=fixed;fillColor=#007FFF;" vertex="1" parent="1">
          <mxGeometry x="455" y="510" width="40" height="40" as="geometry" />
        </mxCell>
        <mxCell id="wyyFAX1h3lHePP9cVkru-18" value="" style="whiteSpace=wrap;html=1;aspect=fixed;fillColor=#007FFF;" vertex="1" parent="1">
          <mxGeometry x="495" y="510" width="40" height="40" as="geometry" />
        </mxCell>
        <mxCell id="wyyFAX1h3lHePP9cVkru-20" value="" style="whiteSpace=wrap;html=1;aspect=fixed;fillColor=#fff2cc;strokeColor=#000000;" vertex="1" parent="1">
          <mxGeometry x="375" y="460" width="40" height="40" as="geometry" />
        </mxCell>
        <mxCell id="wyyFAX1h3lHePP9cVkru-21" value="" style="whiteSpace=wrap;html=1;aspect=fixed;fillColor=#fff2cc;strokeColor=#000000;" vertex="1" parent="1">
          <mxGeometry x="415" y="460" width="40" height="40" as="geometry" />
        </mxCell>
        <mxCell id="wyyFAX1h3lHePP9cVkru-22" value="" style="whiteSpace=wrap;html=1;aspect=fixed;fillColor=#FF6666;" vertex="1" parent="1">
          <mxGeometry x="85" y="510" width="40" height="40" as="geometry" />
        </mxCell>
        <mxCell id="wyyFAX1h3lHePP9cVkru-23" value="" style="whiteSpace=wrap;html=1;aspect=fixed;fillColor=#FF6666;" vertex="1" parent="1">
          <mxGeometry x="125" y="510" width="40" height="40" as="geometry" />
        </mxCell>
        <mxCell id="wyyFAX1h3lHePP9cVkru-24" value="" style="whiteSpace=wrap;html=1;aspect=fixed;fillColor=#FF6666;" vertex="1" parent="1">
          <mxGeometry x="165" y="510" width="40" height="40" as="geometry" />
        </mxCell>
        <mxCell id="wyyFAX1h3lHePP9cVkru-25" value="" style="whiteSpace=wrap;html=1;aspect=fixed;fillColor=none;" vertex="1" parent="1">
          <mxGeometry x="205" y="510" width="40" height="40" as="geometry" />
        </mxCell>
        <mxCell id="wyyFAX1h3lHePP9cVkru-26" value="Hot I/O Buffer" style="text;html=1;align=center;verticalAlign=middle;whiteSpace=wrap;rounded=0;" vertex="1" parent="1">
          <mxGeometry x="255" y="465" width="100" height="30" as="geometry" />
        </mxCell>
        <mxCell id="wyyFAX1h3lHePP9cVkru-27" value="Warm I/O Buffer" style="text;html=1;align=center;verticalAlign=middle;whiteSpace=wrap;rounded=0;" vertex="1" parent="1">
          <mxGeometry x="545" y="465" width="100" height="30" as="geometry" />
        </mxCell>
        <mxCell id="wyyFAX1h3lHePP9cVkru-28" value="Cold I/O Buffer" style="text;html=1;align=center;verticalAlign=middle;whiteSpace=wrap;rounded=0;" vertex="1" parent="1">
          <mxGeometry x="545" y="515" width="100" height="30" as="geometry" />
        </mxCell>
        <mxCell id="wyyFAX1h3lHePP9cVkru-29" value="" style="whiteSpace=wrap;html=1;aspect=fixed;" vertex="1" parent="1">
          <mxGeometry x="80" y="600" width="60" height="60" as="geometry" />
        </mxCell>
        <mxCell id="wyyFAX1h3lHePP9cVkru-35" value="" style="whiteSpace=wrap;html=1;aspect=fixed;" vertex="1" parent="1">
          <mxGeometry x="150" y="600" width="60" height="60" as="geometry" />
        </mxCell>
        <mxCell id="wyyFAX1h3lHePP9cVkru-38" value="" style="whiteSpace=wrap;html=1;aspect=fixed;" vertex="1" parent="1">
          <mxGeometry x="220" y="600" width="60" height="60" as="geometry" />
        </mxCell>
        <mxCell id="wyyFAX1h3lHePP9cVkru-39" value="" style="whiteSpace=wrap;html=1;aspect=fixed;" vertex="1" parent="1">
          <mxGeometry x="290" y="600" width="60" height="60" as="geometry" />
        </mxCell>
        <mxCell id="wyyFAX1h3lHePP9cVkru-43" value="" style="ellipse;shape=cloud;whiteSpace=wrap;html=1;" vertex="1" parent="1">
          <mxGeometry x="440" y="595" width="70" height="70" as="geometry" />
        </mxCell>
        <mxCell id="wyyFAX1h3lHePP9cVkru-44" value="" style="ellipse;shape=cloud;whiteSpace=wrap;html=1;" vertex="1" parent="1">
          <mxGeometry x="510" y="595" width="70" height="70" as="geometry" />
        </mxCell>
        <mxCell id="wyyFAX1h3lHePP9cVkru-45" value="" style="ellipse;shape=cloud;whiteSpace=wrap;html=1;" vertex="1" parent="1">
          <mxGeometry x="580" y="595" width="70" height="70" as="geometry" />
        </mxCell>
        <mxCell id="wyyFAX1h3lHePP9cVkru-46" value="" style="rounded=0;whiteSpace=wrap;html=1;fillColor=#ff6666;" vertex="1" parent="1">
          <mxGeometry x="80" y="620" width="60" height="40" as="geometry" />
        </mxCell>
        <mxCell id="wyyFAX1h3lHePP9cVkru-47" value="" style="rounded=0;whiteSpace=wrap;html=1;fillColor=#ff6666;" vertex="1" parent="1">
          <mxGeometry x="150" y="620" width="60" height="40" as="geometry" />
        </mxCell>
        <mxCell id="wyyFAX1h3lHePP9cVkru-48" value="" style="rounded=0;whiteSpace=wrap;html=1;fillColor=#ff6666;" vertex="1" parent="1">
          <mxGeometry x="220" y="620" width="60" height="40" as="geometry" />
        </mxCell>
        <mxCell id="wyyFAX1h3lHePP9cVkru-49" value="" style="rounded=0;whiteSpace=wrap;html=1;fillColor=#ff6666;" vertex="1" parent="1">
          <mxGeometry x="290" y="620" width="60" height="40" as="geometry" />
        </mxCell>
        <mxCell id="wyyFAX1h3lHePP9cVkru-51" value="" style="endArrow=classic;startArrow=classic;html=1;rounded=0;entryX=0.5;entryY=1;entryDx=0;entryDy=0;exitX=0.25;exitY=0;exitDx=0;exitDy=0;" edge="1" parent="1" source="wyyFAX1h3lHePP9cVkru-29" target="wyyFAX1h3lHePP9cVkru-22">
          <mxGeometry width="50" height="50" relative="1" as="geometry">
            <mxPoint x="350" y="650" as="sourcePoint" />
            <mxPoint x="400" y="600" as="targetPoint" />
          </mxGeometry>
        </mxCell>
        <mxCell id="wyyFAX1h3lHePP9cVkru-52" value="" style="endArrow=classic;startArrow=classic;html=1;rounded=0;entryX=0.5;entryY=1;entryDx=0;entryDy=0;exitX=0.25;exitY=0;exitDx=0;exitDy=0;" edge="1" parent="1" source="wyyFAX1h3lHePP9cVkru-35" target="wyyFAX1h3lHePP9cVkru-23">
          <mxGeometry width="50" height="50" relative="1" as="geometry">
            <mxPoint x="240" y="590" as="sourcePoint" />
            <mxPoint x="290" y="540" as="targetPoint" />
          </mxGeometry>
        </mxCell>
        <mxCell id="wyyFAX1h3lHePP9cVkru-53" value="" style="endArrow=classic;startArrow=classic;html=1;rounded=0;entryX=0.5;entryY=1;entryDx=0;entryDy=0;exitX=0.5;exitY=0;exitDx=0;exitDy=0;" edge="1" parent="1" source="wyyFAX1h3lHePP9cVkru-38" target="wyyFAX1h3lHePP9cVkru-24">
          <mxGeometry width="50" height="50" relative="1" as="geometry">
            <mxPoint x="190" y="630" as="sourcePoint" />
            <mxPoint x="155" y="560" as="targetPoint" />
          </mxGeometry>
        </mxCell>
        <mxCell id="wyyFAX1h3lHePP9cVkru-54" value="" style="endArrow=classic;startArrow=classic;html=1;rounded=0;exitX=0.4;exitY=0.1;exitDx=0;exitDy=0;exitPerimeter=0;entryX=0.75;entryY=1;entryDx=0;entryDy=0;" edge="1" parent="1" source="wyyFAX1h3lHePP9cVkru-5" target="wyyFAX1h3lHePP9cVkru-15">
          <mxGeometry width="50" height="50" relative="1" as="geometry">
            <mxPoint x="410" y="560" as="sourcePoint" />
            <mxPoint x="460" y="510" as="targetPoint" />
          </mxGeometry>
        </mxCell>
        <mxCell id="wyyFAX1h3lHePP9cVkru-55" value="" style="endArrow=classic;startArrow=classic;html=1;rounded=0;exitX=0.25;exitY=0.25;exitDx=0;exitDy=0;exitPerimeter=0;entryX=0.5;entryY=1;entryDx=0;entryDy=0;" edge="1" parent="1" source="wyyFAX1h3lHePP9cVkru-43" target="wyyFAX1h3lHePP9cVkru-16">
          <mxGeometry width="50" height="50" relative="1" as="geometry">
            <mxPoint x="408" y="607" as="sourcePoint" />
            <mxPoint x="415" y="560" as="targetPoint" />
          </mxGeometry>
        </mxCell>
        <mxCell id="wyyFAX1h3lHePP9cVkru-56" value="" style="endArrow=classic;startArrow=classic;html=1;rounded=0;exitX=0.4;exitY=0.1;exitDx=0;exitDy=0;exitPerimeter=0;entryX=0.5;entryY=1;entryDx=0;entryDy=0;" edge="1" parent="1" source="wyyFAX1h3lHePP9cVkru-44" target="wyyFAX1h3lHePP9cVkru-17">
          <mxGeometry width="50" height="50" relative="1" as="geometry">
            <mxPoint x="418" y="617" as="sourcePoint" />
            <mxPoint x="425" y="570" as="targetPoint" />
          </mxGeometry>
        </mxCell>
        <mxCell id="wyyFAX1h3lHePP9cVkru-57" value="" style="endArrow=classic;startArrow=classic;html=1;rounded=0;entryX=0.5;entryY=0;entryDx=0;entryDy=0;exitX=0.914;exitY=0.356;exitDx=0;exitDy=0;exitPerimeter=0;" edge="1" parent="1" source="wyyFAX1h3lHePP9cVkru-45" target="wyyFAX1h3lHePP9cVkru-20">
          <mxGeometry width="50" height="50" relative="1" as="geometry">
            <mxPoint x="410" y="560" as="sourcePoint" />
            <mxPoint x="460" y="510" as="targetPoint" />
            <Array as="points">
              <mxPoint x="680" y="620" />
              <mxPoint x="680" y="410" />
              <mxPoint x="395" y="410" />
            </Array>
          </mxGeometry>
        </mxCell>
        <mxCell id="wyyFAX1h3lHePP9cVkru-59" value="" style="whiteSpace=wrap;html=1;aspect=fixed;fillColor=none;" vertex="1" parent="1">
          <mxGeometry x="455" y="460" width="40" height="40" as="geometry" />
        </mxCell>
        <mxCell id="wyyFAX1h3lHePP9cVkru-60" value="" style="whiteSpace=wrap;html=1;aspect=fixed;fillColor=none;" vertex="1" parent="1">
          <mxGeometry x="495" y="460" width="40" height="40" as="geometry" />
        </mxCell>
      </root>
    </mxGraphModel>
  </diagram>
</mxfile>
